# xmcd
#
# Track frame offsets: 
#        150
#        17265
#        39689
#        57394
#        76026
#        90597
#        111253
#        129900
#        148167
#        169626
#        187031
#        207720
#        229366
#        254853
#        268439
#        286651
#        306271
#        320909
#
# Disc length: 4519 seconds
#
# Revision: 4
# Processed by: cddbd v1.5.2PL0 Copyright (c) Steve Scherf et al.
# Submitted via: ExactAudioCopy v1.0b1
#
DISCID=1311a512
DTITLE=Blue Blot - Hit Collection
DYEAR=2000
DGENRE=Blues
TTITLE0=No No No
TTITLE1=Bridge To Your Heart
TTITLE2=Who Is He And What Is He To You
TTITLE3=Yo Yo Man
TTITLE4=Hold The Line
TTITLE5=Shopping For Love
TTITLE6=September
TTITLE7=I'll Be Home On Christmas Day
TTITLE8=Where Do We Go From Here
TTITLE9=Pretty Good
TTITLE10=These Arms Of Mine
TTITLE11=IRS Blues
TTITLE12=Nothing Like A Woman
TTITLE13=Put Some Rhythm In My Blues
TTITLE14=Closing In On The Fire
TTITLE15=With You In Mind
TTITLE16=Dance To The Blunk
TTITLE17=Hole In The Sky
EXTD=
EXTT0=
EXTT1=
EXTT2=
EXTT3=
EXTT4=
EXTT5=
EXTT6=
EXTT7=
EXTT8=
EXTT9=
EXTT10=
EXTT11=
EXTT12=
EXTT13=
EXTT14=
EXTT15=
EXTT16=
EXTT17=
PLAYORDER=
